<svg width="265" height="36" viewBox="0 0 265 36" fill="none" xmlns="http://www.w3.org/2000/svg">
<path d="M19.626 25.59C19.626 28.534 18.5067 30.8647 16.268 32.582C14.0293 34.2994 11.3153 35.158 8.12599 35.158C5.97932 35.158 4.20066 34.6214 2.78999 33.548C1.40999 32.444 0.643324 31.5087 0.48999 30.742C0.827324 29.73 1.54799 28.5954 2.65199 27.338C3.75599 26.0807 4.75266 25.314 5.64199 25.038C7.20599 26.05 8.66266 28.304 10.012 31.8C12.0053 31.7387 13.002 30.65 13.002 28.534C13.002 27.3687 12.5267 25.9427 11.576 24.256C10.656 22.5387 9.64399 20.944 8.53999 19.472C7.43599 17.9694 6.40866 16.298 5.45799 14.458C4.53799 12.5874 4.07799 10.9314 4.07799 9.49004C4.07799 7.15937 5.01332 5.31937 6.88399 3.97004C8.78532 2.62071 10.9167 1.94604 13.278 1.94604C15.6393 1.94604 17.464 2.45204 18.752 3.46404C20.0707 4.47604 20.73 5.62604 20.73 6.91404C20.73 8.20204 20.2393 9.52071 19.258 10.87C18.2767 12.2194 17.2953 13.2927 16.314 14.09L14.842 15.286C15.21 15.7767 15.6547 16.4054 16.176 17.172C16.6973 17.9387 17.4027 19.242 18.292 21.082C19.1813 22.922 19.626 24.4247 19.626 25.59ZM16.084 10.502C16.5133 10.1034 16.8967 9.62804 17.234 9.07604C17.5713 8.49337 17.74 7.89538 17.74 7.28204C17.74 6.63804 17.372 6.10138 16.636 5.67204C15.9 5.24271 15.0107 5.02804 13.968 5.02804C12.956 5.02804 12.0973 5.27338 11.392 5.76404C10.7173 6.22404 10.38 6.79137 10.38 7.46604C10.38 8.11004 10.5947 8.87671 11.024 9.76604C11.484 10.6247 11.9287 11.3454 12.358 11.928L13.048 12.802C13.3547 12.6487 13.83 12.3267 14.474 11.836C15.1487 11.3454 15.6853 10.9007 16.084 10.502Z" fill="#FF3737"/>
<path d="M31.949 17.08C31.949 18.368 31.535 20.5914 30.707 23.75C29.879 26.878 29.465 28.9327 29.465 29.914C29.465 30.8647 29.603 31.34 29.879 31.34C30.063 31.34 30.7683 31.0487 31.995 30.466L32.547 30.19L33.329 31.8C33.053 32.0454 32.685 32.352 32.225 32.72C31.765 33.088 30.9063 33.594 29.649 34.238C28.3916 34.8514 27.2263 35.158 26.153 35.158C25.0796 35.158 24.2363 34.836 23.623 34.192C23.0096 33.5174 22.703 32.628 22.703 31.524C22.703 30.3894 23.0863 28.396 23.853 25.544C24.6196 22.6614 25.003 20.7907 25.003 19.932C25.003 18.644 24.6043 17.4327 23.807 16.298L23.393 15.746L23.439 15.148C25.0643 14.688 27.7016 14.458 31.351 14.458C31.7496 14.918 31.949 15.792 31.949 17.08ZM26.705 9.44404C26.0916 8.83071 25.785 8.01804 25.785 7.00604C25.785 5.99404 26.199 5.10471 27.027 4.33804C27.8856 3.57137 28.867 3.18804 29.971 3.18804C31.075 3.18804 31.9336 3.49471 32.547 4.10804C33.1603 4.72137 33.467 5.53404 33.467 6.54604C33.467 7.52737 33.0223 8.40137 32.133 9.16804C31.2743 9.93471 30.3083 10.318 29.235 10.318C28.1616 10.318 27.3183 10.0267 26.705 9.44404Z" fill="#FF3737"/>
<path d="M56.7642 31.8C54.1575 34.0387 51.8575 35.158 49.8642 35.158C47.9015 35.158 46.7668 34.1767 46.4602 32.214C45.5402 33.134 44.5128 33.8547 43.3782 34.376C42.2435 34.8974 41.2468 35.158 40.3882 35.158C38.9162 35.158 37.6588 34.514 36.6162 33.226C35.5735 31.938 35.0522 29.9447 35.0522 27.246C35.0522 23.198 35.9108 20.024 37.6282 17.724C39.3455 15.3934 41.2775 14.228 43.4242 14.228C45.6015 14.228 47.4262 14.7187 48.8982 15.7C49.8488 10.732 50.3242 6.82204 50.3242 3.97004L50.0942 2.03804C52.3942 1.24071 54.6482 0.842041 56.8562 0.842041C57.1015 1.36337 57.2242 1.96137 57.2242 2.63604C57.2242 4.87471 56.5495 9.42871 55.2002 16.298C53.8508 23.1367 53.1762 27.7827 53.1762 30.236C53.1762 30.972 53.3448 31.34 53.6822 31.34C53.8662 31.34 54.4488 31.0487 55.4302 30.466L55.8902 30.19L56.7642 31.8ZM45.6782 16.942C44.6048 16.942 43.6695 18 42.8722 20.116C42.1055 22.232 41.7222 24.3327 41.7222 26.418C41.7222 28.4727 41.8602 29.7914 42.1362 30.374C42.4428 30.9567 42.8875 31.248 43.4702 31.248C44.4822 31.248 45.4788 30.834 46.4602 30.006C46.5522 28.7794 47.2422 24.7007 48.5302 17.77C47.4875 17.218 46.5368 16.942 45.6782 16.942Z" fill="#FF3737"/>
<path d="M71.758 15.562C71.8193 15.5007 71.988 15.102 72.264 14.366C73.7053 14.366 75.6373 14.7954 78.06 15.654C77.2933 18.1994 76.68 20.8674 76.22 23.658C75.76 26.418 75.53 28.396 75.53 29.592C75.53 30.7574 75.6527 31.34 75.898 31.34C76.082 31.34 76.7567 31.0487 77.922 30.466L78.474 30.19L79.302 31.8C79.026 32.0454 78.658 32.352 78.198 32.72C77.7687 33.088 76.9407 33.594 75.714 34.238C74.4873 34.8514 73.3833 35.158 72.402 35.158C70.5007 35.158 69.3967 34.2994 69.09 32.582C67.1273 34.2994 65.3487 35.158 63.754 35.158C62.19 35.158 60.856 34.5447 59.752 33.318C58.6787 32.0914 58.142 30.1594 58.142 27.522C58.142 23.4127 58.9853 20.1774 60.672 17.816C62.3587 15.424 64.398 14.228 66.79 14.228C68.5073 14.228 70.1633 14.6727 71.758 15.562ZM66.514 31.248C67.25 31.248 68.078 30.9567 68.998 30.374C69.2127 26.05 69.9333 21.772 71.16 17.54C70.24 17.1414 69.458 16.942 68.814 16.942C67.71 16.942 66.7593 18.0307 65.962 20.208C65.1953 22.3547 64.812 24.7314 64.812 27.338C64.812 29.9447 65.3793 31.248 66.514 31.248Z" fill="#FF3737"/>
<path d="M81.0716 34.744H80.7496C80.6882 34.4987 80.6576 33.9467 80.6576 33.088C80.6576 32.1987 81.0716 29.8374 81.8996 26.004C82.7276 22.1707 83.1416 19.978 83.1416 19.426C83.1416 18.4754 82.7122 17.4327 81.8536 16.298L81.4396 15.746L81.4856 15.148C83.1416 14.688 85.7942 14.458 89.4436 14.458C89.8116 15.2554 89.9956 16.3747 89.9956 17.816C90.3329 17.264 91.0382 16.528 92.1116 15.608C93.1849 14.688 94.2889 14.228 95.4236 14.228C97.0796 14.228 97.9076 15.6694 97.9076 18.552C97.7542 18.736 97.5396 18.9814 97.2636 19.288C97.0182 19.564 96.4969 19.9627 95.6996 20.484C94.9329 21.0054 94.1816 21.3274 93.4456 21.45C93.4149 21.45 93.1542 21.036 92.6636 20.208C92.1729 19.38 91.8049 18.966 91.5596 18.966C90.7929 19.242 90.1182 19.702 89.5356 20.346C88.1249 26.694 87.4196 30.8034 87.4196 32.674C87.4196 33.3487 87.4349 33.824 87.4656 34.1C86.3922 34.5294 84.2609 34.744 81.0716 34.744Z" fill="#FF3737"/>
<path d="M110.615 15.562C110.677 15.5007 110.845 15.102 111.121 14.366C112.563 14.366 114.495 14.7954 116.917 15.654C116.151 18.1994 115.537 20.8674 115.077 23.658C114.617 26.418 114.387 28.396 114.387 29.592C114.387 30.7574 114.51 31.34 114.755 31.34C114.939 31.34 115.614 31.0487 116.779 30.466L117.331 30.19L118.159 31.8C117.883 32.0454 117.515 32.352 117.055 32.72C116.626 33.088 115.798 33.594 114.571 34.238C113.345 34.8514 112.241 35.158 111.259 35.158C109.358 35.158 108.254 34.2994 107.947 32.582C105.985 34.2994 104.206 35.158 102.611 35.158C101.047 35.158 99.7134 34.5447 98.6094 33.318C97.5361 32.0914 96.9994 30.1594 96.9994 27.522C96.9994 23.4127 97.8428 20.1774 99.5294 17.816C101.216 15.424 103.255 14.228 105.647 14.228C107.365 14.228 109.021 14.6727 110.615 15.562ZM105.371 31.248C106.107 31.248 106.935 30.9567 107.855 30.374C108.07 26.05 108.791 21.772 110.017 17.54C109.097 17.1414 108.315 16.942 107.671 16.942C106.567 16.942 105.617 18.0307 104.819 20.208C104.053 22.3547 103.669 24.7314 103.669 27.338C103.669 29.9447 104.237 31.248 105.371 31.248Z" fill="#FF3737"/>
<path d="M137.501 25.59C137.501 28.534 136.382 30.8647 134.143 32.582C131.904 34.2994 129.19 35.158 126.001 35.158C123.854 35.158 122.076 34.6214 120.665 33.548C119.285 32.444 118.518 31.5087 118.365 30.742C118.702 29.73 119.423 28.5954 120.527 27.338C121.631 26.0807 122.628 25.314 123.517 25.038C125.081 26.05 126.538 28.304 127.887 31.8C129.88 31.7387 130.877 30.65 130.877 28.534C130.877 27.3687 130.402 25.9427 129.451 24.256C128.531 22.5387 127.519 20.944 126.415 19.472C125.311 17.9694 124.284 16.298 123.333 14.458C122.413 12.5874 121.953 10.9314 121.953 9.49004C121.953 7.15937 122.888 5.31937 124.759 3.97004C126.66 2.62071 128.792 1.94604 131.153 1.94604C133.514 1.94604 135.339 2.45204 136.627 3.46404C137.946 4.47604 138.605 5.62604 138.605 6.91404C138.605 8.20204 138.114 9.52071 137.133 10.87C136.152 12.2194 135.17 13.2927 134.189 14.09L132.717 15.286C133.085 15.7767 133.53 16.4054 134.051 17.172C134.572 17.9387 135.278 19.242 136.167 21.082C137.056 22.922 137.501 24.4247 137.501 25.59ZM133.959 10.502C134.388 10.1034 134.772 9.62804 135.109 9.07604C135.446 8.49337 135.615 7.89538 135.615 7.28204C135.615 6.63804 135.247 6.10138 134.511 5.67204C133.775 5.24271 132.886 5.02804 131.843 5.02804C130.831 5.02804 129.972 5.27338 129.267 5.76404C128.592 6.22404 128.255 6.79137 128.255 7.46604C128.255 8.11004 128.47 8.87671 128.899 9.76604C129.359 10.6247 129.804 11.3454 130.233 11.928L130.923 12.802C131.23 12.6487 131.705 12.3267 132.349 11.836C133.024 11.3454 133.56 10.9007 133.959 10.502Z" fill="#FF3737"/>
<path d="M154.01 15.562C154.071 15.5007 154.24 15.102 154.516 14.366C155.957 14.366 157.889 14.7954 160.312 15.654C159.545 18.1994 158.932 20.8674 158.472 23.658C158.012 26.418 157.782 28.396 157.782 29.592C157.782 30.7574 157.905 31.34 158.15 31.34C158.334 31.34 159.009 31.0487 160.174 30.466L160.726 30.19L161.554 31.8C161.278 32.0454 160.91 32.352 160.45 32.72C160.021 33.088 159.193 33.594 157.966 34.238C156.739 34.8514 155.635 35.158 154.654 35.158C152.753 35.158 151.649 34.2994 151.342 32.582C149.379 34.2994 147.601 35.158 146.006 35.158C144.442 35.158 143.108 34.5447 142.004 33.318C140.931 32.0914 140.394 30.1594 140.394 27.522C140.394 23.4127 141.237 20.1774 142.924 17.816C144.611 15.424 146.65 14.228 149.042 14.228C150.759 14.228 152.415 14.6727 154.01 15.562ZM148.766 31.248C149.502 31.248 150.33 30.9567 151.25 30.374C151.465 26.05 152.185 21.772 153.412 17.54C152.492 17.1414 151.71 16.942 151.066 16.942C149.962 16.942 149.011 18.0307 148.214 20.208C147.447 22.3547 147.064 24.7314 147.064 27.338C147.064 29.9447 147.631 31.248 148.766 31.248Z" fill="#FF3737"/>
<path d="M165.946 35.158C164.903 35.158 164.029 34.8054 163.324 34.1C162.649 33.3947 162.312 32.4134 162.312 31.156C162.312 29.868 163.063 25.8047 164.566 18.966C166.099 12.0967 166.866 7.14404 166.866 4.10804L166.59 2.08404C168.982 1.25604 171.22 0.842041 173.306 0.842041C173.612 1.27137 173.766 2.02271 173.766 3.09604C173.766 5.54937 172.984 10.3027 171.42 17.356C169.886 24.3787 169.12 28.4727 169.12 29.638C169.12 30.7727 169.258 31.34 169.534 31.34L172.754 30.19L173.582 31.8C172.539 32.628 171.266 33.3947 169.764 34.1C168.292 34.8054 167.019 35.158 165.946 35.158Z" fill="#FF3737"/>
<path d="M184.144 17.08C184.144 18.368 183.73 20.5914 182.902 23.75C182.074 26.878 181.66 28.9327 181.66 29.914C181.66 30.8647 181.798 31.34 182.074 31.34C182.258 31.34 182.964 31.0487 184.19 30.466L184.742 30.19L185.524 31.8C185.248 32.0454 184.88 32.352 184.42 32.72C183.96 33.088 183.102 33.594 181.844 34.238C180.587 34.8514 179.422 35.158 178.348 35.158C177.275 35.158 176.432 34.836 175.818 34.192C175.205 33.5174 174.898 32.628 174.898 31.524C174.898 30.3894 175.282 28.396 176.048 25.544C176.815 22.6614 177.198 20.7907 177.198 19.932C177.198 18.644 176.8 17.4327 176.002 16.298L175.588 15.746L175.634 15.148C177.26 14.688 179.897 14.458 183.546 14.458C183.945 14.918 184.144 15.792 184.144 17.08ZM178.9 9.44404C178.287 8.83071 177.98 8.01804 177.98 7.00604C177.98 5.99404 178.394 5.10471 179.222 4.33804C180.081 3.57137 181.062 3.18804 182.166 3.18804C183.27 3.18804 184.129 3.49471 184.742 4.10804C185.356 4.72137 185.662 5.53404 185.662 6.54604C185.662 7.52737 185.218 8.40137 184.328 9.16804C183.47 9.93471 182.504 10.318 181.43 10.318C180.357 10.318 179.514 10.0267 178.9 9.44404Z" fill="#FF3737"/>
<path d="M188.397 34.744H187.523C187.523 33.3027 187.953 30.5427 188.811 26.464C189.701 22.3854 190.145 20.07 190.145 19.518C190.145 18.506 189.716 17.4327 188.857 16.298L188.443 15.746L188.489 15.148C190.145 14.688 192.798 14.458 196.447 14.458C196.877 15.0407 197.091 15.9914 197.091 17.31C199.851 15.2554 202.044 14.228 203.669 14.228C205.724 14.228 206.935 15.286 207.303 17.402C208.131 16.7274 209.205 16.0374 210.523 15.332C211.873 14.596 213.069 14.228 214.111 14.228C215.185 14.228 216.074 14.5807 216.779 15.286C217.485 15.9607 217.837 16.9114 217.837 18.138C217.837 19.3647 217.5 21.3887 216.825 24.21C216.151 27.0314 215.813 28.9327 215.813 29.914C215.813 30.8647 215.951 31.34 216.227 31.34C216.411 31.34 217.04 31.0487 218.113 30.466L218.619 30.19L219.447 31.8C218.65 32.5974 217.561 33.364 216.181 34.1C214.832 34.8054 213.636 35.158 212.593 35.158C210.293 35.158 209.143 33.8547 209.143 31.248C209.143 30.2974 209.465 28.396 210.109 25.544C210.784 22.6614 211.121 20.7907 211.121 19.932C211.121 19.0427 210.861 18.598 210.339 18.598C209.45 18.598 208.438 18.9354 207.303 19.61C207.242 20.2234 206.813 22.3087 206.015 25.866C205.249 29.4234 204.865 32.1834 204.865 34.146C203.976 34.5447 201.891 34.744 198.609 34.744C198.548 34.4067 198.517 33.594 198.517 32.306C198.517 31.018 198.87 28.8254 199.575 25.728C200.311 22.6307 200.679 20.668 200.679 19.84C200.679 19.012 200.388 18.598 199.805 18.598C198.885 18.598 197.873 18.966 196.769 19.702C196.708 19.978 196.401 21.3274 195.849 23.75C194.745 28.5954 194.193 32.0454 194.193 34.1C193.12 34.5294 191.188 34.744 188.397 34.744Z" fill="#FF3737"/>
<path d="M232.851 2.49804C232.851 4.82871 232.069 9.39804 230.505 16.206C232.345 14.8874 234.001 14.228 235.473 14.228C236.975 14.228 238.248 14.8567 239.291 16.114C240.364 17.3407 240.901 19.2267 240.901 21.772C240.901 26.0347 240.057 29.3314 238.371 31.662C236.715 33.9927 234.691 35.158 232.299 35.158C231.409 35.158 230.505 35.0507 229.585 34.836C228.695 34.6214 228.021 34.3914 227.561 34.146L226.871 33.824C224.908 34.4987 222.991 34.836 221.121 34.836C220.937 34.6827 220.845 33.9467 220.845 32.628C220.845 31.2787 221.703 26.8627 223.421 19.38C225.138 11.8667 225.997 6.73004 225.997 3.97004C225.997 3.47937 225.92 2.85071 225.767 2.08404C228.159 1.25604 230.443 0.842041 232.621 0.842041C232.774 1.27137 232.851 1.82337 232.851 2.49804ZM232.437 18.138C231.854 18.138 230.98 18.414 229.815 18.966C228.404 24.9154 227.637 29.178 227.515 31.754C228.435 32.1527 229.309 32.352 230.137 32.352C231.302 32.352 232.268 31.2787 233.035 29.132C233.832 26.9854 234.231 24.624 234.231 22.048C234.231 19.4414 233.633 18.138 232.437 18.138Z" fill="#FF3737"/>
<path d="M256.746 15.562C256.808 15.5007 256.976 15.102 257.252 14.366C258.694 14.366 260.626 14.7954 263.048 15.654C262.282 18.1994 261.668 20.8674 261.208 23.658C260.748 26.418 260.518 28.396 260.518 29.592C260.518 30.7574 260.641 31.34 260.886 31.34C261.07 31.34 261.745 31.0487 262.91 30.466L263.462 30.19L264.29 31.8C264.014 32.0454 263.646 32.352 263.186 32.72C262.757 33.088 261.929 33.594 260.702 34.238C259.476 34.8514 258.372 35.158 257.39 35.158C255.489 35.158 254.385 34.2994 254.078 32.582C252.116 34.2994 250.337 35.158 248.742 35.158C247.178 35.158 245.844 34.5447 244.74 33.318C243.667 32.0914 243.13 30.1594 243.13 27.522C243.13 23.4127 243.974 20.1774 245.66 17.816C247.347 15.424 249.386 14.228 251.778 14.228C253.496 14.228 255.152 14.6727 256.746 15.562ZM251.502 31.248C252.238 31.248 253.066 30.9567 253.986 30.374C254.201 26.05 254.922 21.772 256.148 17.54C255.228 17.1414 254.446 16.942 253.802 16.942C252.698 16.942 251.748 18.0307 250.95 20.208C250.184 22.3547 249.8 24.7314 249.8 27.338C249.8 29.9447 250.368 31.248 251.502 31.248Z" fill="#FF3737"/>
</svg>
